<svg id="Capa_1" enable-background="new 0 0 512 512" height="512" viewBox="0 0 512 512" width="512" xmlns="http://www.w3.org/2000/svg"><g><g><g><path d="m429.793 504h-347.586c-8.284 0-15-6.716-15-15v-466c0-8.284 6.716-15 15-15h347.586c8.284 0 15 6.716 15 15v466c0 8.284-6.716 15-15 15z" fill="#fff0c8"/></g><path d="m429.793 486h-347.586c-8.284 0-15-6.716-15-15v18c0 8.284 6.716 15 15 15h347.585c8.284 0 15-6.716 15-15v-18c.001 8.284-6.715 15-14.999 15z" fill="#fcdfa7"/><g><path d="m129.799 172.805h115.532v139.95h-115.532z" fill="#ffc265"/><path d="m245.331 294.548c-8.79-22.293-22.879-36.872-41.144-44.222 7.166-5.168 11.835-13.582 11.835-23.091 0-15.716-12.741-28.457-28.457-28.457-15.717 0-28.457 12.741-28.457 28.457 0 9.51 4.669 17.924 11.835 23.091-18.265 7.35-32.354 21.929-41.144 44.222v18.206h115.532z" fill="#575e77"/><g><g><path d="m129.799 294.754h115.532v18h-115.532z" fill="#4c5266"/></g></g></g></g><g><path d="m430.133 0h-348.266c-12.43 0-22.544 10.113-22.544 22.544v73.527c0 4.15 3.364 7.515 7.515 7.515s7.515-3.364 7.515-7.515v-73.527c0-4.144 3.371-7.515 7.515-7.515h348.266c4.144 0 7.515 3.371 7.515 7.515v275.292c0 4.15 3.364 7.515 7.515 7.515s7.515-3.365 7.515-7.515v-275.292c-.002-12.431-10.115-22.544-22.546-22.544z"/><path d="m66.838 389.052c4.151 0 7.515-3.365 7.515-7.515v-255.407c0-4.15-3.364-7.515-7.515-7.515s-7.515 3.364-7.515 7.515v255.407c0 4.15 3.364 7.515 7.515 7.515z"/><path d="m445.162 320.38c-4.151 0-7.515 3.365-7.515 7.515v161.561c0 4.143-3.371 7.515-7.515 7.515h-348.265c-4.144 0-7.515-3.371-7.515-7.515v-77.86c0-4.15-3.364-7.515-7.515-7.515s-7.515 3.365-7.515 7.515v77.86c0 12.431 10.114 22.544 22.544 22.544h348.266c12.431 0 22.544-10.113 22.544-22.544v-161.561c.001-4.15-3.363-7.515-7.514-7.515z"/><path d="m256 56.457c-4.151 0-7.515 3.364-7.515 7.515v17.001h-13.294c-4.151 0-7.515 3.364-7.515 7.515s3.364 7.515 7.515 7.515h13.294v35.01c0 4.15 3.364 7.515 7.515 7.515s7.515-3.364 7.515-7.515v-35.01h13.293c4.151 0 7.515-3.365 7.515-7.515s-3.364-7.515-7.515-7.515h-13.293v-17.002c0-4.15-3.364-7.514-7.515-7.514z"/><path d="m122.038 172.642v140.224c0 4.15 3.364 7.515 7.515 7.515h115.757c4.151 0 7.515-3.364 7.515-7.515v-140.224c0-4.15-3.364-7.515-7.515-7.515h-115.757c-4.151 0-7.515 3.365-7.515 7.515zm115.758 132.709h-100.728v-9.272c7.86-19.154 20.14-32.202 36.515-38.792 2.54-1.022 4.324-3.345 4.655-6.064s-.844-5.401-3.065-7.003c-5.472-3.946-8.739-10.316-8.739-17.041 0-11.578 9.42-20.998 20.998-20.998s20.998 9.42 20.998 20.998c0 6.725-3.267 13.095-8.739 17.041-2.221 1.602-3.395 4.285-3.065 7.003.331 2.718 2.115 5.042 4.655 6.064 16.375 6.59 28.655 19.639 36.515 38.792zm0-125.194v86.206c-6.01-7.479-13.043-13.572-21.076-18.231 4.321-6.047 6.74-13.368 6.74-20.953 0-19.866-16.161-36.027-36.027-36.027s-36.027 16.162-36.027 36.027c0 7.585 2.419 14.906 6.74 20.953-8.033 4.658-15.066 10.752-21.076 18.231v-86.206z"/><path d="m382.522 179.799h-93.587c-4.151 0-7.515 3.365-7.515 7.515s3.364 7.515 7.515 7.515h93.587c4.151 0 7.515-3.364 7.515-7.515s-3.364-7.515-7.515-7.515z"/><path d="m382.522 221.649h-93.587c-4.151 0-7.515 3.365-7.515 7.515s3.364 7.515 7.515 7.515h93.587c4.151 0 7.515-3.365 7.515-7.515s-3.364-7.515-7.515-7.515z"/><path d="m382.522 263.5h-93.587c-4.151 0-7.515 3.365-7.515 7.515s3.364 7.515 7.515 7.515h93.587c4.151 0 7.515-3.365 7.515-7.515s-3.364-7.515-7.515-7.515z"/><path d="m382.522 305.351h-93.587c-4.151 0-7.515 3.365-7.515 7.515s3.364 7.515 7.515 7.515h93.587c4.151 0 7.515-3.364 7.515-7.515s-3.364-7.515-7.515-7.515z"/><path d="m129.553 362.23h252.97c4.151 0 7.515-3.365 7.515-7.515s-3.364-7.515-7.515-7.515h-252.97c-4.151 0-7.515 3.365-7.515 7.515 0 4.151 3.364 7.515 7.515 7.515z"/><path d="m129.553 404.081h252.97c4.151 0 7.515-3.365 7.515-7.515s-3.364-7.515-7.515-7.515h-252.97c-4.151 0-7.515 3.364-7.515 7.515s3.364 7.515 7.515 7.515z"/><path d="m129.553 445.932h159.383c4.151 0 7.515-3.365 7.515-7.515s-3.364-7.515-7.515-7.515h-159.383c-4.151 0-7.515 3.365-7.515 7.515s3.364 7.515 7.515 7.515z"/></g></g></svg>